<svg width="48" height="48" viewBox="0 0 48 48" fill="none" xmlns="http://www.w3.org/2000/svg">
<rect width="48" height="48" fill="white"/>
<path d="M44.25 42.375C44.25 43.4106 43.4106 44.25 42.375 44.25H40.5V46.125C40.5 47.1606 39.6606 48 38.625 48C37.5894 48 36.75 47.1606 36.75 46.125V44.25H34.875C33.8394 44.25 33 43.4106 33 42.375C33 41.3394 33.8394 40.5 34.875 40.5H36.75V38.625C36.75 37.5894 37.5894 36.75 38.625 36.75C39.6606 36.75 40.5 37.5894 40.5 38.625V40.5H42.375C43.4106 40.5 44.25 41.3394 44.25 42.375ZM44.25 13.125V31.125C44.25 32.1606 43.4106 33 42.375 33C41.3394 33 40.5 32.1606 40.5 31.125V15H36.75V20.625C36.75 21.6606 35.9106 22.5 34.875 22.5C33.8394 22.5 33 21.6606 33 20.625V15H15V20.625C15 21.6606 14.1606 22.5 13.125 22.5C12.0894 22.5 11.25 21.6606 11.25 20.625V15H7.5V44.25H27.375C28.4106 44.25 29.25 45.0894 29.25 46.125C29.25 47.1606 28.4106 48 27.375 48H5.625C4.58944 48 3.75 47.1606 3.75 46.125V13.125C3.75 12.0894 4.58944 11.25 5.625 11.25H11.3387C12.0835 4.92403 17.4772 0 24 0C30.5228 0 35.9165 4.92403 36.6613 11.25H42.375C43.4106 11.25 44.25 12.0894 44.25 13.125ZM32.8743 11.25C32.158 6.99891 28.4515 3.75 24 3.75C19.5485 3.75 15.842 6.99891 15.1257 11.25H32.8743Z" fill="black"/>
</svg>
